<svg xmlns="http://www.w3.org/2000/svg" viewBox="0 0 800 500">
    <!-- Background -->
    <rect width="800" height="500" fill="white"/>
    
    <!-- Title -->
    <text x="400" y="40" text-anchor="middle" font-size="24" font-family="Arial" font-weight="bold">Batch Normalization: 3D Feature Map View</text>
    
    <!-- Helper function for isometric cube -->
    <defs>
        <!-- Define gradient for top face -->
        <linearGradient id="topGradient" x1="0%" y1="0%" x2="100%" y2="0%">
            <stop offset="0%" style="stop-color:#A0D8EF;stop-opacity:0.6"/>
            <stop offset="100%" style="stop-color:#7CB9E8;stop-opacity:0.6"/>
        </linearGradient>
        <!-- Define gradient for right face -->
        <linearGradient id="rightGradient" x1="0%" y1="0%" x2="100%" y2="0%">
            <stop offset="0%" style="stop-color:#6F8FAF;stop-opacity:0.6"/>
            <stop offset="100%" style="stop-color:#4F7CAC;stop-opacity:0.6"/>
        </linearGradient>
        <!-- Define gradient for left face -->
        <linearGradient id="leftGradient" x1="0%" y1="0%" x2="100%" y2="0%">
            <stop offset="0%" style="stop-color:#89CFF0;stop-opacity:0.6"/>
            <stop offset="100%" style="stop-color:#6CB4EE;stop-opacity:0.6"/>
        </linearGradient>
        
        <!-- Highlight gradient for normalization -->
        <linearGradient id="highlightGradient" x1="0%" y1="0%" x2="100%" y2="0%">
            <stop offset="0%" style="stop-color:#FFB6C1;stop-opacity:0.3"/>
            <stop offset="100%" style="stop-color:#FF69B4;stop-opacity:0.3"/>
        </linearGradient>
    </defs>
    
    <!-- First Sample in Batch -->
    <g transform="translate(100,100)">
        <!-- Cube 1 (Channel 1) -->
        <g>
            <!-- Top face -->
            <path d="M0 50 L60 20 L120 50 L60 80 Z" fill="url(#topGradient)" stroke="#333"/>
            <!-- Right face -->
            <path d="M120 50 L60 80 L60 140 L120 110 Z" fill="url(#rightGradient)" stroke="#333"/>
            <!-- Left face -->
            <path d="M0 50 L60 80 L60 140 L0 110 Z" fill="url(#leftGradient)" stroke="#333"/>
            <!-- Grid lines for top -->
            <path d="M20 42 L80 12 M40 34 L100 4 M20 42 L20 102 M40 34 L40 94 M80 12 L80 72" 
                  stroke="#333" stroke-width="0.5" opacity="0.3"/>
        </g>
        <text x="60" y="170" text-anchor="middle" font-size="14" font-family="Arial">Sample 1</text>
    </g>
    
    <!-- Second Sample -->
    <g transform="translate(100,220)">
        <!-- Cube 2 (Channel 1) -->
        <g>
            <!-- Top face -->
            <path d="M0 50 L60 20 L120 50 L60 80 Z" fill="url(#topGradient)" stroke="#333"/>
            <!-- Right face -->
            <path d="M120 50 L60 80 L60 140 L120 110 Z" fill="url(#rightGradient)" stroke="#333"/>
            <!-- Left face -->
            <path d="M0 50 L60 80 L60 140 L0 110 Z" fill="url(#leftGradient)" stroke="#333"/>
            <!-- Grid lines -->
            <path d="M20 42 L80 12 M40 34 L100 4 M20 42 L20 102 M40 34 L40 94 M80 12 L80 72" 
                  stroke="#333" stroke-width="0.5" opacity="0.3"/>
        </g>
        <text x="60" y="170" text-anchor="middle" font-size="14" font-family="Arial">Sample 2</text>
    </g>
    
    <!-- Continuation dots -->
    <g transform="translate(130,400)">
        <circle cx="0" cy="0" r="4" fill="#333"/>
        <circle cx="15" cy="0" r="4" fill="#333"/>
        <circle cx="30" cy="0" r="4" fill="#333"/>
    </g>
    
    <!-- Normalization highlight -->
    <rect x="90" y="80" width="140" height="340" fill="url(#highlightGradient)" stroke="#FF69B4" stroke-width="2" stroke-dasharray="5,5"/>
    
    <!-- Channel 2 (offset) -->
    <g transform="translate(300,100)">
        <!-- Similar cubes with different color for Channel 2 -->
        <g opacity="0.7">
            <!-- Cube 1 -->
            <g>
                <path d="M0 50 L60 20 L120 50 L60 80 Z" fill="url(#topGradient)" stroke="#333"/>
                <path d="M120 50 L60 80 L60 140 L120 110 Z" fill="url(#rightGradient)" stroke="#333"/>
                <path d="M0 50 L60 80 L60 140 L0 110 Z" fill="url(#leftGradient)" stroke="#333"/>
            </g>
        </g>
        
        <!-- Second sample -->
        <g transform="translate(0,120)" opacity="0.7">
            <g>
                <path d="M0 50 L60 20 L120 50 L60 80 Z" fill="url(#topGradient)" stroke="#333"/>
                <path d="M120 50 L60 80 L60 140 L120 110 Z" fill="url(#rightGradient)" stroke="#333"/>
                <path d="M0 50 L60 80 L60 140 L0 110 Z" fill="url(#leftGradient)" stroke="#333"/>
            </g>
        </g>
    </g>
    
    <!-- Continuation dots for channels -->
    <g transform="translate(500,200)">
        <circle cx="0" cy="0" r="4" fill="#333"/>
        <circle cx="15" cy="0" r="4" fill="#333"/>
        <circle cx="30" cy="0" r="4" fill="#333"/>
    </g>
    
    <!-- Annotations -->
    <g transform="translate(550,100)">
        <text x="0" y="0" font-size="16" font-family="Arial" font-weight="bold">BatchNorm Statistics:</text>
        <text x="0" y="30" font-size="14" font-family="Arial">• Compute μ, σ per channel</text>
        <text x="0" y="60" font-size="14" font-family="Arial">• Across entire batch (N×H×W)</text>
        <text x="0" y="90" font-size="14" font-family="Arial">• Each channel normalized independently</text>
        <text x="0" y="120" font-size="14" font-family="Arial">• Pink highlight shows normalization group</text>
    </g>
    
    <!-- Dimensions -->
    <g transform="translate(100,450)">
        <text x="0" y="0" font-size="14" font-family="Arial" font-weight="bold">Dimensions:</text>
        <text x="100" y="0" font-size="14" font-family="Arial">H×W: Feature Map Size</text>
        <text x="300" y="0" font-size="14" font-family="Arial">C: Channels</text>
        <text x="450" y="0" font-size="14" font-family="Arial">N: Batch Size</text>
    </g>
</svg>
